<mxfile host="app.diagrams.net" modified="2024-01-10T06:08:29.927Z" agent="Mozilla/5.0 (X11; Linux x86_64) AppleWebKit/537.36 (KHTML, like Gecko) Chrome/120.0.0.0 Safari/537.36" etag="ZR-RPyJoIVoUcJd3G0_X" version="22.1.18" type="device">
  <diagram name="ページ1" id="kF2DnnwxLdY34Rmvxa2c">
    <mxGraphModel dx="1595" dy="1459" grid="1" gridSize="10" guides="1" tooltips="1" connect="1" arrows="1" fold="1" page="0" pageScale="1" pageWidth="827" pageHeight="1169" math="0" shadow="0">
      <root>
        <mxCell id="0" />
        <mxCell id="1" parent="0" />
        <mxCell id="2xDXSOiU6W4gctT_W5Wa-19" value="田川：ユーザ" style="swimlane;fontStyle=0;childLayout=stackLayout;horizontal=1;startSize=26;fillColor=none;horizontalStack=0;resizeParent=1;resizeParentMax=0;resizeLast=0;collapsible=1;marginBottom=0;whiteSpace=wrap;html=1;" vertex="1" parent="1">
          <mxGeometry x="-100" y="-240" width="260" height="158" as="geometry" />
        </mxCell>
        <mxCell id="2xDXSOiU6W4gctT_W5Wa-20" value="氏名 = 田川太郎" style="text;strokeColor=none;fillColor=none;align=left;verticalAlign=top;spacingLeft=4;spacingRight=4;overflow=hidden;rotatable=0;points=[[0,0.5],[1,0.5]];portConstraint=eastwest;whiteSpace=wrap;html=1;" vertex="1" parent="2xDXSOiU6W4gctT_W5Wa-19">
          <mxGeometry y="26" width="260" height="26" as="geometry" />
        </mxCell>
        <mxCell id="2xDXSOiU6W4gctT_W5Wa-21" value="メールアドレス = abc@email.com" style="text;strokeColor=none;fillColor=none;align=left;verticalAlign=top;spacingLeft=4;spacingRight=4;overflow=hidden;rotatable=0;points=[[0,0.5],[1,0.5]];portConstraint=eastwest;whiteSpace=wrap;html=1;" vertex="1" parent="2xDXSOiU6W4gctT_W5Wa-19">
          <mxGeometry y="52" width="260" height="28" as="geometry" />
        </mxCell>
        <mxCell id="2xDXSOiU6W4gctT_W5Wa-22" value="パスワード = aaaa" style="text;strokeColor=none;fillColor=none;align=left;verticalAlign=top;spacingLeft=4;spacingRight=4;overflow=hidden;rotatable=0;points=[[0,0.5],[1,0.5]];portConstraint=eastwest;whiteSpace=wrap;html=1;" vertex="1" parent="2xDXSOiU6W4gctT_W5Wa-19">
          <mxGeometry y="80" width="260" height="26" as="geometry" />
        </mxCell>
        <mxCell id="2xDXSOiU6W4gctT_W5Wa-23" value="アカウント登録日 = 2023年12月3日" style="text;strokeColor=none;fillColor=none;align=left;verticalAlign=top;spacingLeft=4;spacingRight=4;overflow=hidden;rotatable=0;points=[[0,0.5],[1,0.5]];portConstraint=eastwest;whiteSpace=wrap;html=1;" vertex="1" parent="2xDXSOiU6W4gctT_W5Wa-19">
          <mxGeometry y="106" width="260" height="26" as="geometry" />
        </mxCell>
        <mxCell id="2xDXSOiU6W4gctT_W5Wa-24" value="アカウント変更日 = 2024年1月3日" style="text;strokeColor=none;fillColor=none;align=left;verticalAlign=top;spacingLeft=4;spacingRight=4;overflow=hidden;rotatable=0;points=[[0,0.5],[1,0.5]];portConstraint=eastwest;whiteSpace=wrap;html=1;" vertex="1" parent="2xDXSOiU6W4gctT_W5Wa-19">
          <mxGeometry y="132" width="260" height="26" as="geometry" />
        </mxCell>
        <mxCell id="2xDXSOiU6W4gctT_W5Wa-25" value="田中：ユーザ" style="swimlane;fontStyle=0;childLayout=stackLayout;horizontal=1;startSize=26;fillColor=none;horizontalStack=0;resizeParent=1;resizeParentMax=0;resizeLast=0;collapsible=1;marginBottom=0;whiteSpace=wrap;html=1;" vertex="1" parent="1">
          <mxGeometry x="-105" y="-40" width="270" height="158" as="geometry" />
        </mxCell>
        <mxCell id="2xDXSOiU6W4gctT_W5Wa-26" value="氏名 = 田中次郎" style="text;strokeColor=none;fillColor=none;align=left;verticalAlign=top;spacingLeft=4;spacingRight=4;overflow=hidden;rotatable=0;points=[[0,0.5],[1,0.5]];portConstraint=eastwest;whiteSpace=wrap;html=1;" vertex="1" parent="2xDXSOiU6W4gctT_W5Wa-25">
          <mxGeometry y="26" width="270" height="26" as="geometry" />
        </mxCell>
        <mxCell id="2xDXSOiU6W4gctT_W5Wa-27" value="メールアドレス = bbb@email.com" style="text;strokeColor=none;fillColor=none;align=left;verticalAlign=top;spacingLeft=4;spacingRight=4;overflow=hidden;rotatable=0;points=[[0,0.5],[1,0.5]];portConstraint=eastwest;whiteSpace=wrap;html=1;" vertex="1" parent="2xDXSOiU6W4gctT_W5Wa-25">
          <mxGeometry y="52" width="270" height="28" as="geometry" />
        </mxCell>
        <mxCell id="2xDXSOiU6W4gctT_W5Wa-28" value="パスワード = abcd" style="text;strokeColor=none;fillColor=none;align=left;verticalAlign=top;spacingLeft=4;spacingRight=4;overflow=hidden;rotatable=0;points=[[0,0.5],[1,0.5]];portConstraint=eastwest;whiteSpace=wrap;html=1;" vertex="1" parent="2xDXSOiU6W4gctT_W5Wa-25">
          <mxGeometry y="80" width="270" height="26" as="geometry" />
        </mxCell>
        <mxCell id="2xDXSOiU6W4gctT_W5Wa-29" value="アカウント登録日 = 2023年12月4日" style="text;strokeColor=none;fillColor=none;align=left;verticalAlign=top;spacingLeft=4;spacingRight=4;overflow=hidden;rotatable=0;points=[[0,0.5],[1,0.5]];portConstraint=eastwest;whiteSpace=wrap;html=1;" vertex="1" parent="2xDXSOiU6W4gctT_W5Wa-25">
          <mxGeometry y="106" width="270" height="26" as="geometry" />
        </mxCell>
        <mxCell id="2xDXSOiU6W4gctT_W5Wa-30" value="アカウント変更日 = 2024年1月4日" style="text;strokeColor=none;fillColor=none;align=left;verticalAlign=top;spacingLeft=4;spacingRight=4;overflow=hidden;rotatable=0;points=[[0,0.5],[1,0.5]];portConstraint=eastwest;whiteSpace=wrap;html=1;" vertex="1" parent="2xDXSOiU6W4gctT_W5Wa-25">
          <mxGeometry y="132" width="270" height="26" as="geometry" />
        </mxCell>
        <mxCell id="2xDXSOiU6W4gctT_W5Wa-31" value="斉藤：ユーザ" style="swimlane;fontStyle=0;childLayout=stackLayout;horizontal=1;startSize=26;fillColor=none;horizontalStack=0;resizeParent=1;resizeParentMax=0;resizeLast=0;collapsible=1;marginBottom=0;whiteSpace=wrap;html=1;" vertex="1" parent="1">
          <mxGeometry x="-110" y="280" width="270" height="158" as="geometry" />
        </mxCell>
        <mxCell id="2xDXSOiU6W4gctT_W5Wa-32" value="氏名 = 斉藤花子" style="text;strokeColor=none;fillColor=none;align=left;verticalAlign=top;spacingLeft=4;spacingRight=4;overflow=hidden;rotatable=0;points=[[0,0.5],[1,0.5]];portConstraint=eastwest;whiteSpace=wrap;html=1;" vertex="1" parent="2xDXSOiU6W4gctT_W5Wa-31">
          <mxGeometry y="26" width="270" height="26" as="geometry" />
        </mxCell>
        <mxCell id="2xDXSOiU6W4gctT_W5Wa-33" value="メールアドレス = ccc@email.com" style="text;strokeColor=none;fillColor=none;align=left;verticalAlign=top;spacingLeft=4;spacingRight=4;overflow=hidden;rotatable=0;points=[[0,0.5],[1,0.5]];portConstraint=eastwest;whiteSpace=wrap;html=1;" vertex="1" parent="2xDXSOiU6W4gctT_W5Wa-31">
          <mxGeometry y="52" width="270" height="28" as="geometry" />
        </mxCell>
        <mxCell id="2xDXSOiU6W4gctT_W5Wa-34" value="パスワード = aaaa" style="text;strokeColor=none;fillColor=none;align=left;verticalAlign=top;spacingLeft=4;spacingRight=4;overflow=hidden;rotatable=0;points=[[0,0.5],[1,0.5]];portConstraint=eastwest;whiteSpace=wrap;html=1;" vertex="1" parent="2xDXSOiU6W4gctT_W5Wa-31">
          <mxGeometry y="80" width="270" height="26" as="geometry" />
        </mxCell>
        <mxCell id="2xDXSOiU6W4gctT_W5Wa-35" value="アカウント登録日 = 2023年12月5日" style="text;strokeColor=none;fillColor=none;align=left;verticalAlign=top;spacingLeft=4;spacingRight=4;overflow=hidden;rotatable=0;points=[[0,0.5],[1,0.5]];portConstraint=eastwest;whiteSpace=wrap;html=1;" vertex="1" parent="2xDXSOiU6W4gctT_W5Wa-31">
          <mxGeometry y="106" width="270" height="26" as="geometry" />
        </mxCell>
        <mxCell id="2xDXSOiU6W4gctT_W5Wa-36" value="アカウント変更日 = 2024年1月5日" style="text;strokeColor=none;fillColor=none;align=left;verticalAlign=top;spacingLeft=4;spacingRight=4;overflow=hidden;rotatable=0;points=[[0,0.5],[1,0.5]];portConstraint=eastwest;whiteSpace=wrap;html=1;" vertex="1" parent="2xDXSOiU6W4gctT_W5Wa-31">
          <mxGeometry y="132" width="270" height="26" as="geometry" />
        </mxCell>
        <mxCell id="2xDXSOiU6W4gctT_W5Wa-37" value="田川さんの日記：日記" style="swimlane;fontStyle=0;childLayout=stackLayout;horizontal=1;startSize=26;fillColor=none;horizontalStack=0;resizeParent=1;resizeParentMax=0;resizeLast=0;collapsible=1;marginBottom=0;whiteSpace=wrap;html=1;" vertex="1" parent="1">
          <mxGeometry x="900" y="-220" width="260" height="106" as="geometry" />
        </mxCell>
        <mxCell id="2xDXSOiU6W4gctT_W5Wa-38" value="作成日時 =&amp;nbsp;2024年2月3日13時30分" style="text;strokeColor=none;fillColor=none;align=left;verticalAlign=top;spacingLeft=4;spacingRight=4;overflow=hidden;rotatable=0;points=[[0,0.5],[1,0.5]];portConstraint=eastwest;whiteSpace=wrap;html=1;" vertex="1" parent="2xDXSOiU6W4gctT_W5Wa-37">
          <mxGeometry y="26" width="260" height="26" as="geometry" />
        </mxCell>
        <mxCell id="2xDXSOiU6W4gctT_W5Wa-39" value="投稿内容 =&amp;nbsp;会社でイベントをやるらしい！" style="text;strokeColor=none;fillColor=none;align=left;verticalAlign=top;spacingLeft=4;spacingRight=4;overflow=hidden;rotatable=0;points=[[0,0.5],[1,0.5]];portConstraint=eastwest;whiteSpace=wrap;html=1;" vertex="1" parent="2xDXSOiU6W4gctT_W5Wa-37">
          <mxGeometry y="52" width="260" height="28" as="geometry" />
        </mxCell>
        <mxCell id="2xDXSOiU6W4gctT_W5Wa-40" value="公開範囲 = 全体" style="text;strokeColor=none;fillColor=none;align=left;verticalAlign=top;spacingLeft=4;spacingRight=4;overflow=hidden;rotatable=0;points=[[0,0.5],[1,0.5]];portConstraint=eastwest;whiteSpace=wrap;html=1;" vertex="1" parent="2xDXSOiU6W4gctT_W5Wa-37">
          <mxGeometry y="80" width="260" height="26" as="geometry" />
        </mxCell>
        <mxCell id="2xDXSOiU6W4gctT_W5Wa-41" value="田中さんの日記：日記" style="swimlane;fontStyle=0;childLayout=stackLayout;horizontal=1;startSize=26;fillColor=none;horizontalStack=0;resizeParent=1;resizeParentMax=0;resizeLast=0;collapsible=1;marginBottom=0;whiteSpace=wrap;html=1;" vertex="1" parent="1">
          <mxGeometry x="900" y="-8" width="260" height="106" as="geometry" />
        </mxCell>
        <mxCell id="2xDXSOiU6W4gctT_W5Wa-42" value="作成日時 =&amp;nbsp;2024年2月4日14時30分" style="text;strokeColor=none;fillColor=none;align=left;verticalAlign=top;spacingLeft=4;spacingRight=4;overflow=hidden;rotatable=0;points=[[0,0.5],[1,0.5]];portConstraint=eastwest;whiteSpace=wrap;html=1;" vertex="1" parent="2xDXSOiU6W4gctT_W5Wa-41">
          <mxGeometry y="26" width="260" height="26" as="geometry" />
        </mxCell>
        <mxCell id="2xDXSOiU6W4gctT_W5Wa-43" value="投稿内容 =&amp;nbsp;今日残業確定..." style="text;strokeColor=none;fillColor=none;align=left;verticalAlign=top;spacingLeft=4;spacingRight=4;overflow=hidden;rotatable=0;points=[[0,0.5],[1,0.5]];portConstraint=eastwest;whiteSpace=wrap;html=1;" vertex="1" parent="2xDXSOiU6W4gctT_W5Wa-41">
          <mxGeometry y="52" width="260" height="28" as="geometry" />
        </mxCell>
        <mxCell id="2xDXSOiU6W4gctT_W5Wa-44" value="公開範囲 = 友達間" style="text;strokeColor=none;fillColor=none;align=left;verticalAlign=top;spacingLeft=4;spacingRight=4;overflow=hidden;rotatable=0;points=[[0,0.5],[1,0.5]];portConstraint=eastwest;whiteSpace=wrap;html=1;" vertex="1" parent="2xDXSOiU6W4gctT_W5Wa-41">
          <mxGeometry y="80" width="260" height="26" as="geometry" />
        </mxCell>
        <mxCell id="2xDXSOiU6W4gctT_W5Wa-45" value="斉藤さんの日記：日記" style="swimlane;fontStyle=0;childLayout=stackLayout;horizontal=1;startSize=26;fillColor=none;horizontalStack=0;resizeParent=1;resizeParentMax=0;resizeLast=0;collapsible=1;marginBottom=0;whiteSpace=wrap;html=1;" vertex="1" parent="1">
          <mxGeometry x="900" y="320" width="260" height="106" as="geometry" />
        </mxCell>
        <mxCell id="2xDXSOiU6W4gctT_W5Wa-46" value="作成日時 =&amp;nbsp;2024年2月5日15時30分" style="text;strokeColor=none;fillColor=none;align=left;verticalAlign=top;spacingLeft=4;spacingRight=4;overflow=hidden;rotatable=0;points=[[0,0.5],[1,0.5]];portConstraint=eastwest;whiteSpace=wrap;html=1;" vertex="1" parent="2xDXSOiU6W4gctT_W5Wa-45">
          <mxGeometry y="26" width="260" height="26" as="geometry" />
        </mxCell>
        <mxCell id="2xDXSOiU6W4gctT_W5Wa-47" value="投稿内容 =&amp;nbsp;書類の提出忘れない！" style="text;strokeColor=none;fillColor=none;align=left;verticalAlign=top;spacingLeft=4;spacingRight=4;overflow=hidden;rotatable=0;points=[[0,0.5],[1,0.5]];portConstraint=eastwest;whiteSpace=wrap;html=1;" vertex="1" parent="2xDXSOiU6W4gctT_W5Wa-45">
          <mxGeometry y="52" width="260" height="28" as="geometry" />
        </mxCell>
        <mxCell id="2xDXSOiU6W4gctT_W5Wa-48" value="公開範囲 = 非公開" style="text;strokeColor=none;fillColor=none;align=left;verticalAlign=top;spacingLeft=4;spacingRight=4;overflow=hidden;rotatable=0;points=[[0,0.5],[1,0.5]];portConstraint=eastwest;whiteSpace=wrap;html=1;" vertex="1" parent="2xDXSOiU6W4gctT_W5Wa-45">
          <mxGeometry y="80" width="260" height="26" as="geometry" />
        </mxCell>
        <mxCell id="2xDXSOiU6W4gctT_W5Wa-49" style="edgeStyle=none;curved=1;rounded=0;orthogonalLoop=1;jettySize=auto;html=1;exitX=0;exitY=0.5;exitDx=0;exitDy=0;entryX=1;entryY=0.5;entryDx=0;entryDy=0;fontSize=12;endArrow=none;endFill=0;" edge="1" parent="1" source="2xDXSOiU6W4gctT_W5Wa-47" target="2xDXSOiU6W4gctT_W5Wa-34">
          <mxGeometry relative="1" as="geometry" />
        </mxCell>
        <mxCell id="2xDXSOiU6W4gctT_W5Wa-50" style="edgeStyle=none;curved=1;rounded=0;orthogonalLoop=1;jettySize=auto;html=1;exitX=0;exitY=0.5;exitDx=0;exitDy=0;entryX=1;entryY=0.5;entryDx=0;entryDy=0;fontSize=12;startSize=8;endSize=8;endArrow=none;endFill=0;" edge="1" parent="1" source="2xDXSOiU6W4gctT_W5Wa-39" target="2xDXSOiU6W4gctT_W5Wa-22">
          <mxGeometry relative="1" as="geometry" />
        </mxCell>
        <mxCell id="2xDXSOiU6W4gctT_W5Wa-51" value="：友達" style="swimlane;fontStyle=0;childLayout=stackLayout;horizontal=1;startSize=26;fillColor=none;horizontalStack=0;resizeParent=1;resizeParentMax=0;resizeLast=0;collapsible=1;marginBottom=0;whiteSpace=wrap;html=1;" vertex="1" parent="1">
          <mxGeometry x="-100" y="180" width="260" height="52" as="geometry" />
        </mxCell>
        <mxCell id="2xDXSOiU6W4gctT_W5Wa-52" value="友達になった日時 =&amp;nbsp;2024年1月13日12時30分" style="text;strokeColor=none;fillColor=none;align=left;verticalAlign=top;spacingLeft=4;spacingRight=4;overflow=hidden;rotatable=0;points=[[0,0.5],[1,0.5]];portConstraint=eastwest;whiteSpace=wrap;html=1;" vertex="1" parent="2xDXSOiU6W4gctT_W5Wa-51">
          <mxGeometry y="26" width="260" height="26" as="geometry" />
        </mxCell>
        <mxCell id="2xDXSOiU6W4gctT_W5Wa-53" style="edgeStyle=none;curved=1;rounded=0;orthogonalLoop=1;jettySize=auto;html=1;exitX=0.515;exitY=1.192;exitDx=0;exitDy=0;entryX=0.5;entryY=0;entryDx=0;entryDy=0;fontSize=12;startSize=8;endSize=8;exitPerimeter=0;endArrow=none;endFill=0;" edge="1" parent="1" source="2xDXSOiU6W4gctT_W5Wa-30" target="2xDXSOiU6W4gctT_W5Wa-51">
          <mxGeometry relative="1" as="geometry">
            <mxPoint x="490" y="139" as="targetPoint" />
          </mxGeometry>
        </mxCell>
        <mxCell id="2xDXSOiU6W4gctT_W5Wa-54" style="edgeStyle=none;curved=1;rounded=0;orthogonalLoop=1;jettySize=auto;html=1;exitX=0.5;exitY=0;exitDx=0;exitDy=0;entryX=0.485;entryY=0.962;entryDx=0;entryDy=0;fontSize=12;startSize=8;endSize=8;entryPerimeter=0;endArrow=none;endFill=0;" edge="1" parent="1" source="2xDXSOiU6W4gctT_W5Wa-31" target="2xDXSOiU6W4gctT_W5Wa-52">
          <mxGeometry relative="1" as="geometry">
            <mxPoint x="490" y="139" as="targetPoint" />
          </mxGeometry>
        </mxCell>
        <mxCell id="2xDXSOiU6W4gctT_W5Wa-55" style="edgeStyle=none;curved=1;rounded=0;orthogonalLoop=1;jettySize=auto;html=1;exitX=0;exitY=0.5;exitDx=0;exitDy=0;fontSize=12;startSize=8;endSize=8;endArrow=none;endFill=0;" edge="1" parent="1" source="2xDXSOiU6W4gctT_W5Wa-43">
          <mxGeometry relative="1" as="geometry">
            <mxPoint x="170" y="53" as="targetPoint" />
          </mxGeometry>
        </mxCell>
        <mxCell id="2xDXSOiU6W4gctT_W5Wa-56" style="edgeStyle=none;curved=1;rounded=0;orthogonalLoop=1;jettySize=auto;html=1;exitX=1;exitY=0.5;exitDx=0;exitDy=0;entryX=0;entryY=0.077;entryDx=0;entryDy=0;entryPerimeter=0;fontSize=12;startSize=8;endSize=8;endArrow=none;endFill=0;" edge="1" parent="1" source="2xDXSOiU6W4gctT_W5Wa-28" target="2xDXSOiU6W4gctT_W5Wa-59">
          <mxGeometry relative="1" as="geometry" />
        </mxCell>
        <mxCell id="2xDXSOiU6W4gctT_W5Wa-57" style="edgeStyle=none;curved=1;rounded=0;orthogonalLoop=1;jettySize=auto;html=1;exitX=1;exitY=0.75;exitDx=0;exitDy=0;entryX=0;entryY=0.5;entryDx=0;entryDy=0;fontSize=12;startSize=8;endSize=8;endArrow=none;endFill=0;" edge="1" parent="1" source="2xDXSOiU6W4gctT_W5Wa-58" target="2xDXSOiU6W4gctT_W5Wa-43">
          <mxGeometry relative="1" as="geometry" />
        </mxCell>
        <mxCell id="2xDXSOiU6W4gctT_W5Wa-58" value="田中さんのタイムライン:タイムライン" style="swimlane;fontStyle=0;childLayout=stackLayout;horizontal=1;startSize=26;fillColor=default;horizontalStack=0;resizeParent=1;resizeParentMax=0;resizeLast=0;collapsible=1;marginBottom=0;whiteSpace=wrap;html=1;" vertex="1" parent="1">
          <mxGeometry x="400" y="140" width="260" height="52" as="geometry" />
        </mxCell>
        <mxCell id="2xDXSOiU6W4gctT_W5Wa-59" value="閲覧範囲 = 友達間" style="text;strokeColor=none;fillColor=default;align=left;verticalAlign=top;spacingLeft=4;spacingRight=4;overflow=hidden;rotatable=0;points=[[0,0.5],[1,0.5]];portConstraint=eastwest;whiteSpace=wrap;html=1;" vertex="1" parent="2xDXSOiU6W4gctT_W5Wa-58">
          <mxGeometry y="26" width="260" height="26" as="geometry" />
        </mxCell>
        <mxCell id="2xDXSOiU6W4gctT_W5Wa-60" style="edgeStyle=none;curved=1;rounded=0;orthogonalLoop=1;jettySize=auto;html=1;exitX=1;exitY=0.5;exitDx=0;exitDy=0;entryX=0;entryY=0.5;entryDx=0;entryDy=0;fontSize=12;startSize=8;endSize=8;endArrow=none;endFill=0;" edge="1" parent="1" source="2xDXSOiU6W4gctT_W5Wa-62" target="2xDXSOiU6W4gctT_W5Wa-39">
          <mxGeometry relative="1" as="geometry" />
        </mxCell>
        <mxCell id="2xDXSOiU6W4gctT_W5Wa-61" style="edgeStyle=none;curved=1;rounded=0;orthogonalLoop=1;jettySize=auto;html=1;exitX=0;exitY=0.5;exitDx=0;exitDy=0;entryX=1;entryY=0.5;entryDx=0;entryDy=0;fontSize=12;startSize=8;endSize=8;endArrow=none;endFill=0;" edge="1" parent="1" source="2xDXSOiU6W4gctT_W5Wa-62" target="2xDXSOiU6W4gctT_W5Wa-22">
          <mxGeometry relative="1" as="geometry" />
        </mxCell>
        <mxCell id="2xDXSOiU6W4gctT_W5Wa-62" value="田川さんのタイムライン:タイムライン" style="swimlane;fontStyle=0;childLayout=stackLayout;horizontal=1;startSize=26;fillColor=default;horizontalStack=0;resizeParent=1;resizeParentMax=0;resizeLast=0;collapsible=1;marginBottom=0;whiteSpace=wrap;html=1;" vertex="1" parent="1">
          <mxGeometry x="400" y="-40" width="260" height="52" as="geometry" />
        </mxCell>
        <mxCell id="2xDXSOiU6W4gctT_W5Wa-63" value="閲覧範囲 = 全体" style="text;strokeColor=none;fillColor=default;align=left;verticalAlign=top;spacingLeft=4;spacingRight=4;overflow=hidden;rotatable=0;points=[[0,0.5],[1,0.5]];portConstraint=eastwest;whiteSpace=wrap;html=1;" vertex="1" parent="2xDXSOiU6W4gctT_W5Wa-62">
          <mxGeometry y="26" width="260" height="26" as="geometry" />
        </mxCell>
        <mxCell id="2xDXSOiU6W4gctT_W5Wa-64" style="edgeStyle=none;curved=1;rounded=0;orthogonalLoop=1;jettySize=auto;html=1;exitX=1;exitY=0.5;exitDx=0;exitDy=0;entryX=0;entryY=0.5;entryDx=0;entryDy=0;fontSize=12;startSize=8;endSize=8;endArrow=none;endFill=0;" edge="1" parent="1" source="2xDXSOiU6W4gctT_W5Wa-68" target="2xDXSOiU6W4gctT_W5Wa-43">
          <mxGeometry relative="1" as="geometry" />
        </mxCell>
        <mxCell id="2xDXSOiU6W4gctT_W5Wa-65" style="edgeStyle=none;curved=1;rounded=0;orthogonalLoop=1;jettySize=auto;html=1;exitX=1;exitY=0.5;exitDx=0;exitDy=0;entryX=0;entryY=0.5;entryDx=0;entryDy=0;fontSize=12;startSize=8;endSize=8;endArrow=none;endFill=0;" edge="1" parent="1" source="2xDXSOiU6W4gctT_W5Wa-68" target="2xDXSOiU6W4gctT_W5Wa-47">
          <mxGeometry relative="1" as="geometry" />
        </mxCell>
        <mxCell id="2xDXSOiU6W4gctT_W5Wa-66" style="edgeStyle=none;curved=1;rounded=0;orthogonalLoop=1;jettySize=auto;html=1;exitX=1;exitY=0.5;exitDx=0;exitDy=0;entryX=0;entryY=0.5;entryDx=0;entryDy=0;fontSize=12;startSize=8;endSize=8;endArrow=none;endFill=0;" edge="1" parent="1" source="2xDXSOiU6W4gctT_W5Wa-68" target="2xDXSOiU6W4gctT_W5Wa-39">
          <mxGeometry relative="1" as="geometry" />
        </mxCell>
        <mxCell id="2xDXSOiU6W4gctT_W5Wa-67" style="edgeStyle=none;curved=1;rounded=0;orthogonalLoop=1;jettySize=auto;html=1;exitX=0;exitY=0.5;exitDx=0;exitDy=0;entryX=1;entryY=0.5;entryDx=0;entryDy=0;fontSize=12;startSize=8;endSize=8;endArrow=none;endFill=0;" edge="1" parent="1" source="2xDXSOiU6W4gctT_W5Wa-68" target="2xDXSOiU6W4gctT_W5Wa-34">
          <mxGeometry relative="1" as="geometry" />
        </mxCell>
        <mxCell id="2xDXSOiU6W4gctT_W5Wa-68" value="斉藤さんのタイムライン:タイムライン" style="swimlane;fontStyle=0;childLayout=stackLayout;horizontal=1;startSize=26;fillColor=default;horizontalStack=0;resizeParent=1;resizeParentMax=0;resizeLast=0;collapsible=1;marginBottom=0;whiteSpace=wrap;html=1;" vertex="1" parent="1">
          <mxGeometry x="400" y="300" width="260" height="52" as="geometry" />
        </mxCell>
        <mxCell id="2xDXSOiU6W4gctT_W5Wa-69" value="閲覧範囲 = 全体" style="text;strokeColor=none;fillColor=default;align=left;verticalAlign=top;spacingLeft=4;spacingRight=4;overflow=hidden;rotatable=0;points=[[0,0.5],[1,0.5]];portConstraint=eastwest;whiteSpace=wrap;html=1;" vertex="1" parent="2xDXSOiU6W4gctT_W5Wa-68">
          <mxGeometry y="26" width="260" height="26" as="geometry" />
        </mxCell>
        <mxCell id="2xDXSOiU6W4gctT_W5Wa-70" value="田川さんのコメント：コメント" style="swimlane;fontStyle=0;childLayout=stackLayout;horizontal=1;startSize=26;fillColor=none;horizontalStack=0;resizeParent=1;resizeParentMax=0;resizeLast=0;collapsible=1;marginBottom=0;whiteSpace=wrap;html=1;" vertex="1" parent="1">
          <mxGeometry x="760" y="-440" width="260" height="106" as="geometry" />
        </mxCell>
        <mxCell id="2xDXSOiU6W4gctT_W5Wa-71" value="作成日時 =&amp;nbsp;2024年2月3日14時00分" style="text;strokeColor=none;fillColor=none;align=left;verticalAlign=top;spacingLeft=4;spacingRight=4;overflow=hidden;rotatable=0;points=[[0,0.5],[1,0.5]];portConstraint=eastwest;whiteSpace=wrap;html=1;" vertex="1" parent="2xDXSOiU6W4gctT_W5Wa-70">
          <mxGeometry y="26" width="260" height="26" as="geometry" />
        </mxCell>
        <mxCell id="2xDXSOiU6W4gctT_W5Wa-72" value="投稿内容 = 日付は3月1日！" style="text;strokeColor=none;fillColor=none;align=left;verticalAlign=top;spacingLeft=4;spacingRight=4;overflow=hidden;rotatable=0;points=[[0,0.5],[1,0.5]];portConstraint=eastwest;whiteSpace=wrap;html=1;" vertex="1" parent="2xDXSOiU6W4gctT_W5Wa-70">
          <mxGeometry y="52" width="260" height="28" as="geometry" />
        </mxCell>
        <mxCell id="2xDXSOiU6W4gctT_W5Wa-73" value="公開範囲 = 全体" style="text;strokeColor=none;fillColor=none;align=left;verticalAlign=top;spacingLeft=4;spacingRight=4;overflow=hidden;rotatable=0;points=[[0,0.5],[1,0.5]];portConstraint=eastwest;whiteSpace=wrap;html=1;" vertex="1" parent="2xDXSOiU6W4gctT_W5Wa-70">
          <mxGeometry y="80" width="260" height="26" as="geometry" />
        </mxCell>
        <mxCell id="2xDXSOiU6W4gctT_W5Wa-74" style="edgeStyle=none;curved=1;rounded=0;orthogonalLoop=1;jettySize=auto;html=1;exitX=0.5;exitY=0;exitDx=0;exitDy=0;entryX=0.468;entryY=1.024;entryDx=0;entryDy=0;entryPerimeter=0;fontSize=12;startSize=8;endSize=8;endArrow=none;endFill=0;" edge="1" parent="1" source="2xDXSOiU6W4gctT_W5Wa-37" target="2xDXSOiU6W4gctT_W5Wa-73">
          <mxGeometry relative="1" as="geometry" />
        </mxCell>
        <mxCell id="2xDXSOiU6W4gctT_W5Wa-75" value="田中さんのコメント：コメント" style="swimlane;fontStyle=0;childLayout=stackLayout;horizontal=1;startSize=26;fillColor=none;horizontalStack=0;resizeParent=1;resizeParentMax=0;resizeLast=0;collapsible=1;marginBottom=0;whiteSpace=wrap;html=1;" vertex="1" parent="1">
          <mxGeometry x="1090" y="-440" width="260" height="106" as="geometry" />
        </mxCell>
        <mxCell id="2xDXSOiU6W4gctT_W5Wa-76" value="作成日時 =&amp;nbsp;2024年2月3日14時30分" style="text;strokeColor=none;fillColor=none;align=left;verticalAlign=top;spacingLeft=4;spacingRight=4;overflow=hidden;rotatable=0;points=[[0,0.5],[1,0.5]];portConstraint=eastwest;whiteSpace=wrap;html=1;" vertex="1" parent="2xDXSOiU6W4gctT_W5Wa-75">
          <mxGeometry y="26" width="260" height="26" as="geometry" />
        </mxCell>
        <mxCell id="2xDXSOiU6W4gctT_W5Wa-77" value="投稿内容 = 楽しみですね" style="text;strokeColor=none;fillColor=none;align=left;verticalAlign=top;spacingLeft=4;spacingRight=4;overflow=hidden;rotatable=0;points=[[0,0.5],[1,0.5]];portConstraint=eastwest;whiteSpace=wrap;html=1;" vertex="1" parent="2xDXSOiU6W4gctT_W5Wa-75">
          <mxGeometry y="52" width="260" height="28" as="geometry" />
        </mxCell>
        <mxCell id="2xDXSOiU6W4gctT_W5Wa-78" value="公開範囲 = 全体" style="text;strokeColor=none;fillColor=none;align=left;verticalAlign=top;spacingLeft=4;spacingRight=4;overflow=hidden;rotatable=0;points=[[0,0.5],[1,0.5]];portConstraint=eastwest;whiteSpace=wrap;html=1;" vertex="1" parent="2xDXSOiU6W4gctT_W5Wa-75">
          <mxGeometry y="80" width="260" height="26" as="geometry" />
        </mxCell>
        <mxCell id="2xDXSOiU6W4gctT_W5Wa-79" style="edgeStyle=none;curved=1;rounded=0;orthogonalLoop=1;jettySize=auto;html=1;exitX=0.5;exitY=0;exitDx=0;exitDy=0;entryX=0.523;entryY=0.962;entryDx=0;entryDy=0;entryPerimeter=0;fontSize=12;startSize=8;endSize=8;endArrow=none;endFill=0;" edge="1" parent="1" source="2xDXSOiU6W4gctT_W5Wa-37" target="2xDXSOiU6W4gctT_W5Wa-78">
          <mxGeometry relative="1" as="geometry" />
        </mxCell>
        <mxCell id="2xDXSOiU6W4gctT_W5Wa-80" value="斉藤さんのコメント：コメント" style="swimlane;fontStyle=0;childLayout=stackLayout;horizontal=1;startSize=26;fillColor=none;horizontalStack=0;resizeParent=1;resizeParentMax=0;resizeLast=0;collapsible=1;marginBottom=0;whiteSpace=wrap;html=1;" vertex="1" parent="1">
          <mxGeometry x="900" y="490" width="260" height="106" as="geometry" />
        </mxCell>
        <mxCell id="2xDXSOiU6W4gctT_W5Wa-81" value="作成日時 =&amp;nbsp;2024年2月5日16時00分" style="text;strokeColor=none;fillColor=none;align=left;verticalAlign=top;spacingLeft=4;spacingRight=4;overflow=hidden;rotatable=0;points=[[0,0.5],[1,0.5]];portConstraint=eastwest;whiteSpace=wrap;html=1;" vertex="1" parent="2xDXSOiU6W4gctT_W5Wa-80">
          <mxGeometry y="26" width="260" height="26" as="geometry" />
        </mxCell>
        <mxCell id="2xDXSOiU6W4gctT_W5Wa-82" value="投稿内容 = 提出済み" style="text;strokeColor=none;fillColor=none;align=left;verticalAlign=top;spacingLeft=4;spacingRight=4;overflow=hidden;rotatable=0;points=[[0,0.5],[1,0.5]];portConstraint=eastwest;whiteSpace=wrap;html=1;" vertex="1" parent="2xDXSOiU6W4gctT_W5Wa-80">
          <mxGeometry y="52" width="260" height="28" as="geometry" />
        </mxCell>
        <mxCell id="2xDXSOiU6W4gctT_W5Wa-83" value="公開範囲 = 非公開" style="text;strokeColor=none;fillColor=none;align=left;verticalAlign=top;spacingLeft=4;spacingRight=4;overflow=hidden;rotatable=0;points=[[0,0.5],[1,0.5]];portConstraint=eastwest;whiteSpace=wrap;html=1;" vertex="1" parent="2xDXSOiU6W4gctT_W5Wa-80">
          <mxGeometry y="80" width="260" height="26" as="geometry" />
        </mxCell>
        <mxCell id="2xDXSOiU6W4gctT_W5Wa-84" style="edgeStyle=none;curved=1;rounded=0;orthogonalLoop=1;jettySize=auto;html=1;exitX=0.5;exitY=0;exitDx=0;exitDy=0;fontSize=12;startSize=8;endSize=8;endArrow=none;endFill=0;" edge="1" parent="1" source="2xDXSOiU6W4gctT_W5Wa-80">
          <mxGeometry relative="1" as="geometry">
            <mxPoint x="1030" y="430" as="targetPoint" />
          </mxGeometry>
        </mxCell>
        <mxCell id="2xDXSOiU6W4gctT_W5Wa-85" style="edgeStyle=none;curved=1;rounded=0;orthogonalLoop=1;jettySize=auto;html=1;exitX=1;exitY=0.5;exitDx=0;exitDy=0;entryX=0;entryY=0.5;entryDx=0;entryDy=0;fontSize=12;startSize=8;endSize=8;endArrow=none;endFill=0;" edge="1" parent="1" source="2xDXSOiU6W4gctT_W5Wa-22" target="2xDXSOiU6W4gctT_W5Wa-72">
          <mxGeometry relative="1" as="geometry" />
        </mxCell>
        <mxCell id="2xDXSOiU6W4gctT_W5Wa-86" style="edgeStyle=none;curved=1;rounded=0;orthogonalLoop=1;jettySize=auto;html=1;exitX=0;exitY=0.5;exitDx=0;exitDy=0;entryX=1;entryY=0.5;entryDx=0;entryDy=0;fontSize=12;startSize=8;endSize=8;endArrow=none;endFill=0;" edge="1" parent="1" source="2xDXSOiU6W4gctT_W5Wa-78" target="2xDXSOiU6W4gctT_W5Wa-27">
          <mxGeometry relative="1" as="geometry" />
        </mxCell>
        <mxCell id="2xDXSOiU6W4gctT_W5Wa-87" style="edgeStyle=none;curved=1;rounded=0;orthogonalLoop=1;jettySize=auto;html=1;exitX=0;exitY=0.5;exitDx=0;exitDy=0;entryX=1;entryY=0.5;entryDx=0;entryDy=0;fontSize=12;startSize=8;endSize=8;endArrow=none;endFill=0;" edge="1" parent="1" source="2xDXSOiU6W4gctT_W5Wa-82" target="2xDXSOiU6W4gctT_W5Wa-34">
          <mxGeometry relative="1" as="geometry" />
        </mxCell>
      </root>
    </mxGraphModel>
  </diagram>
</mxfile>
